<svg width="1920" height="1190" viewBox="0 0 1920 1190" fill="none" xmlns="http://www.w3.org/2000/svg">
<g opacity="0.25" clip-path="url(#clip0_0_24)">
<path d="M99.4142 -96.4352C53.8201 18.8696 111.009 156.415 208.782 232.644C306.555 308.873 435.372 333.642 559.33 335.884C683.289 338.125 806.931 320.346 930.882 322.243C1054.83 324.14 1183.69 348.11 1282.11 423.504C1401.47 514.95 1456.82 665.184 1545.02 786.97C1684.04 978.96 1915.27 1100.84 2152.21 1107C2274.34 1110.19 2416.06 1068.86 2460.15 954.862" stroke="white" stroke-width="0.85" stroke-linecap="round" stroke-linejoin="round"/>
<path d="M98.6626 -126.659C53.0685 -11.3545 110.258 126.191 208.03 202.42C305.803 278.649 434.621 303.418 558.579 305.66C682.537 307.901 806.18 290.122 930.131 292.019C1054.08 293.916 1182.94 317.886 1281.36 393.279C1400.71 484.725 1456.07 634.959 1544.27 756.745C1683.29 948.736 1914.52 1070.62 2151.46 1076.78C2273.59 1079.97 2415.31 1038.64 2459.39 924.638" stroke="white" stroke-width="0.85" stroke-linecap="round" stroke-linejoin="round"/>
<path d="M97.9107 -156.884C52.3167 -41.5791 109.506 95.9663 207.279 172.195C305.052 248.424 433.869 273.194 557.827 275.435C681.785 277.676 805.428 259.898 929.379 261.794C1053.33 263.691 1182.19 287.661 1280.61 363.055C1399.96 454.501 1455.31 604.735 1543.52 726.521C1682.53 918.511 1913.77 1040.4 2150.71 1046.55C2272.84 1049.74 2414.56 1008.41 2458.64 894.413" stroke="white" stroke-width="0.85" stroke-linecap="round" stroke-linejoin="round"/>
<path d="M97.1883 -187.101C51.5943 -71.7959 108.783 65.7495 206.556 141.978C304.329 218.207 433.146 242.977 557.104 245.218C681.063 247.459 804.705 229.681 928.656 231.577C1052.61 233.474 1181.47 257.445 1279.89 332.838C1399.24 424.284 1454.59 574.518 1542.8 696.304C1681.81 888.295 1913.05 1010.18 2149.98 1016.34C2272.12 1019.52 2413.84 978.197 2457.92 864.197" stroke="white" stroke-width="0.85" stroke-linecap="round" stroke-linejoin="round"/>
<path d="M96.4293 -217.296C50.8352 -101.991 108.024 35.5546 205.797 111.784C303.57 188.012 432.387 212.782 556.345 215.023C680.304 217.265 803.946 199.486 927.897 201.383C1051.85 203.279 1180.71 227.25 1279.13 302.643C1398.48 394.089 1453.83 544.323 1542.04 666.109C1681.05 858.1 1912.29 979.984 2149.23 986.142C2271.36 989.329 2413.08 948.002 2457.16 834.002" stroke="white" stroke-width="0.85" stroke-linecap="round" stroke-linejoin="round"/>
<path d="M95.6776 -247.52C50.0836 -132.215 107.273 5.33052 205.046 81.5595C302.819 157.788 431.636 182.558 555.594 184.799C679.552 187.04 803.195 169.262 927.146 171.158C1051.1 173.055 1179.96 197.026 1278.38 272.419C1397.73 363.865 1453.08 514.099 1541.29 635.885C1680.3 827.876 1911.54 949.76 2148.47 955.918C2270.61 959.105 2412.33 917.778 2456.41 803.778" stroke="white" stroke-width="0.85" stroke-linecap="round" stroke-linejoin="round"/>
<path d="M94.9259 -277.744C49.3318 -162.439 106.521 -24.8941 204.294 51.3348C302.067 127.564 430.884 152.333 554.842 154.574C678.8 156.816 802.443 139.037 926.394 140.934C1050.34 142.83 1179.21 166.801 1277.62 242.194C1396.98 333.64 1452.33 483.874 1540.54 605.66C1679.55 797.651 1910.79 919.536 2147.72 925.694C2269.86 928.88 2411.57 887.553 2455.66 773.553" stroke="white" stroke-width="0.85" stroke-linecap="round" stroke-linejoin="round"/>
<path d="M94.2035 -307.961C48.6094 -192.656 105.799 -55.111 203.571 21.118C301.344 97.3469 430.161 122.116 554.12 124.358C678.078 126.599 801.72 108.82 925.671 110.717C1049.62 112.614 1178.48 136.584 1276.9 211.978C1396.26 303.424 1451.61 453.658 1539.81 575.444C1678.83 767.434 1910.06 889.319 2147 895.477C2269.13 898.663 2410.85 857.337 2454.93 743.336" stroke="white" stroke-width="0.85" stroke-linecap="round" stroke-linejoin="round"/>
<path d="M93.4518 -338.185C47.8577 -222.88 105.047 -85.335 202.82 -9.10609C300.593 67.1229 429.41 91.8923 553.368 94.1336C677.326 96.3749 800.969 78.5962 924.92 80.4929C1048.87 82.3896 1177.73 106.36 1276.15 181.754C1395.5 273.2 1450.86 423.434 1539.06 545.22C1678.08 737.21 1909.31 859.095 2146.25 865.253C2268.38 868.439 2410.1 827.113 2454.18 713.112" stroke="white" stroke-width="0.85" stroke-linecap="round" stroke-linejoin="round"/>
<path d="M92.6927 -368.38C47.0987 -253.075 104.288 -115.53 202.061 -39.3009C299.833 36.928 428.651 61.6975 552.609 63.9388C676.567 66.1801 800.21 48.4013 924.161 50.298C1048.11 52.1947 1176.97 76.1653 1275.39 151.559C1394.74 243.005 1450.1 393.239 1538.3 515.025C1677.32 707.015 1908.55 828.9 2145.49 835.058C2267.62 838.244 2409.34 796.918 2453.42 682.917" stroke="white" stroke-width="0.85" stroke-linecap="round" stroke-linejoin="round"/>
<path d="M91.9408 -398.605C46.3468 -283.3 103.536 -145.755 201.309 -69.5256C299.082 6.70335 427.899 31.4729 551.857 33.7142C675.815 35.9554 799.458 18.1767 923.409 20.0734C1047.36 21.9701 1176.22 45.9406 1274.64 121.334C1393.99 212.78 1449.35 363.014 1537.55 484.8C1676.56 676.791 1907.8 798.675 2144.74 804.833C2266.87 808.02 2408.59 766.693 2452.67 652.693" stroke="white" stroke-width="0.85" stroke-linecap="round" stroke-linejoin="round"/>
<path d="M91.2185 -428.821C45.6245 -313.517 102.814 -175.971 200.587 -99.7423C298.359 -23.5134 427.176 1.25614 551.135 3.49739C675.093 5.73865 798.736 -12.04 922.687 -10.1433C1046.64 -8.24662 1175.5 15.7239 1273.92 91.1173C1393.27 182.563 1448.62 332.797 1536.83 454.583C1675.84 646.574 1907.08 768.458 2144.02 774.617C2266.15 777.803 2407.87 736.476 2451.95 622.476" stroke="white" stroke-width="0.85" stroke-linecap="round" stroke-linejoin="round"/>
<path d="M90.4668 -459.046C44.8727 -343.741 102.062 -206.195 199.835 -129.966C297.608 -53.7375 426.425 -28.968 550.383 -26.7267C674.341 -24.4855 797.984 -42.2642 921.935 -40.3675C1045.89 -38.4708 1174.75 -14.5003 1273.17 60.8932C1392.52 152.339 1447.87 302.573 1536.08 424.359C1675.09 616.35 1906.33 738.234 2143.26 744.393C2265.4 747.579 2407.11 706.252 2451.2 592.252" stroke="white" stroke-width="0.85" stroke-linecap="round" stroke-linejoin="round"/>
<path d="M89.7077 -489.241C44.1137 -373.936 101.303 -236.391 199.076 -160.162C296.848 -83.9328 425.666 -59.1633 549.624 -56.922C673.582 -54.6808 797.225 -72.4595 921.176 -70.5628C1045.13 -68.6661 1173.99 -44.6955 1272.41 30.6979C1391.76 122.144 1447.11 272.378 1535.32 394.164C1674.33 586.154 1905.57 708.039 2142.5 714.197C2264.64 717.384 2406.36 676.057 2450.44 562.056" stroke="white" stroke-width="0.85" stroke-linecap="round" stroke-linejoin="round"/>
<path d="M88.956 -519.465C43.362 -404.16 100.551 -266.615 198.324 -190.386C296.097 -114.157 424.914 -89.3874 548.872 -87.1461C672.831 -84.9049 796.473 -102.684 920.424 -100.787C1044.38 -98.8901 1173.24 -74.9196 1271.65 0.473792C1391.01 91.9198 1446.36 242.154 1534.57 363.94C1673.58 555.93 1904.82 677.815 2141.75 683.973C2263.89 687.16 2405.6 645.833 2449.69 531.832" stroke="white" stroke-width="0.85" stroke-linecap="round" stroke-linejoin="round"/>
<path d="M88.2336 -549.682C42.6396 -434.377 99.8287 -296.832 197.602 -220.603C295.374 -144.374 424.192 -119.604 548.15 -117.363C672.108 -115.122 795.751 -132.9 919.702 -131.004C1043.65 -129.107 1172.51 -105.136 1270.93 -29.743C1390.29 61.703 1445.64 211.937 1533.84 333.723C1672.86 525.714 1904.09 647.598 2141.03 653.756C2263.16 656.943 2404.88 615.616 2448.97 501.615" stroke="white" stroke-width="0.85" stroke-linecap="round" stroke-linejoin="round"/>
<path d="M87.4819 -579.906C41.8879 -464.601 99.077 -327.056 196.85 -250.827C294.623 -174.598 423.44 -149.828 547.398 -147.587C671.356 -145.346 794.999 -163.125 918.95 -161.228C1042.9 -159.331 1171.76 -135.361 1270.18 -59.9671C1389.53 31.4788 1444.89 181.713 1533.09 303.499C1672.11 495.489 1903.34 617.374 2140.28 623.532C2262.41 626.719 2404.13 585.392 2448.21 471.391" stroke="white" stroke-width="0.85" stroke-linecap="round" stroke-linejoin="round"/>
<path d="M86.7229 -610.101C41.1288 -494.796 98.3181 -357.251 196.091 -281.022C293.864 -204.793 422.681 -180.024 546.639 -177.782C670.597 -175.541 794.24 -193.32 918.191 -191.423C1042.14 -189.526 1171 -165.556 1269.42 -90.1624C1388.77 1.28354 1444.13 151.518 1532.33 273.303C1671.35 465.294 1902.58 587.179 2139.52 593.337C2261.65 596.523 2403.37 555.196 2447.45 441.196" stroke="white" stroke-width="0.85" stroke-linecap="round" stroke-linejoin="round"/>
<path d="M85.9712 -640.325C40.3771 -525.021 97.5663 -387.475 195.339 -311.246C293.112 -235.017 421.929 -210.248 545.887 -208.007C669.846 -205.765 793.488 -223.544 917.439 -221.647C1041.39 -219.75 1170.25 -195.78 1268.67 -120.387C1388.02 -28.9406 1443.38 121.293 1531.58 243.079C1670.59 435.07 1901.83 556.955 2138.77 563.113C2260.9 566.299 2402.62 524.972 2446.7 410.972" stroke="white" stroke-width="0.85" stroke-linecap="round" stroke-linejoin="round"/>
<path d="M85.2488 -670.542C39.6547 -555.237 96.8438 -417.692 194.617 -341.463C292.389 -265.234 421.207 -240.465 545.165 -238.223C669.123 -235.982 792.766 -253.761 916.717 -251.864C1040.67 -249.967 1169.53 -225.997 1267.95 -150.603C1387.3 -59.1574 1442.65 91.0767 1530.86 212.863C1669.87 404.853 1901.11 526.738 2138.05 532.896C2260.18 536.082 2401.9 494.756 2445.98 380.755" stroke="white" stroke-width="0.85" stroke-linecap="round" stroke-linejoin="round"/>
<path d="M84.497 -700.766C38.903 -585.461 96.0923 -447.916 193.865 -371.687C291.638 -295.458 420.455 -270.689 544.413 -268.447C668.372 -266.206 792.014 -283.985 915.965 -282.088C1039.92 -280.191 1168.78 -256.221 1267.2 -180.827C1386.55 -89.3815 1441.9 60.8525 1530.11 182.638C1669.12 374.629 1900.36 496.514 2137.29 502.672C2259.43 505.858 2401.14 464.531 2445.23 350.531" stroke="white" stroke-width="0.85" stroke-linecap="round" stroke-linejoin="round"/>
<path d="M83.7452 -730.991C38.1512 -615.686 95.3403 -478.141 193.113 -401.912C290.886 -325.683 419.703 -300.913 543.661 -298.672C667.62 -296.431 791.262 -314.209 915.213 -312.313C1039.16 -310.416 1168.03 -286.446 1266.44 -211.052C1385.8 -119.606 1441.15 30.628 1529.36 152.414C1668.37 344.404 1899.61 466.289 2136.54 472.447C2258.67 475.634 2400.39 434.307 2444.48 320.306" stroke="white" stroke-width="0.85" stroke-linecap="round" stroke-linejoin="round"/>
</g>
<defs>
<clipPath id="clip0_0_24">
<rect width="2719.13" height="1301.04" fill="white" transform="matrix(-0.970066 -0.242841 -0.242841 0.970066 2718.68 -72.6831)"/>
</clipPath>
</defs>
</svg>
