<svg width="24" height="24" viewBox="0 0 24 24" fill="none" xmlns="http://www.w3.org/2000/svg">
<path d="M12.314 6.1829L11.6642 5.55245C11.5296 5.42194 11.4002 5.29689 11.2744 5.17541C11.0546 4.96307 10.8461 4.76162 10.6415 4.56098C9.00072 2.95321 6.74236 2.498 4.93299 3.27924L4.93283 3.27931C3.11907 4.06202 1.85702 6.05548 1.90111 8.28731L1.90111 8.28737C1.93442 9.97922 2.64327 11.4794 3.67634 12.9636L3.67663 12.964C5.93146 16.2073 8.99036 18.6434 12.2533 21.0294C14.6308 19.2984 16.895 17.5121 18.8503 15.3969L19.5111 16.0079L18.8503 15.3969C20.5094 13.6021 21.8746 11.7867 22.4325 9.53866L22.4326 9.53843C23.0207 7.17181 22.0148 4.70624 20.1001 3.55408L12.314 6.1829ZM12.314 6.1829L12.9405 5.52928M12.314 6.1829L12.9405 5.52928M12.9405 5.52928C13.0847 5.37892 13.212 5.24082 13.3318 5.11097C13.5615 4.86178 13.7633 4.64299 14.0019 4.42624L14.0023 4.42593M12.9405 5.52928L14.0023 4.42593M14.0023 4.42593C15.8653 2.73199 18.2782 2.45847 20.1 3.55399L14.0023 4.42593Z" fill="#F46280" stroke="#F46280" stroke-width="1.8"/>
</svg>
